<?xml version="1.0"?>
<svg preserveAspectRatio="xMidYMid meet" viewBox="0 0 500 500" width="500" height="500" xmlns="http://www.w3.org/2000/svg" xmlns:svg="http://www.w3.org/2000/svg">
 <!-- Created with SVG-edit - https://github.com/SVG-Edit/svgedit-->

 <g class="layer">
<title>Layer 1</title>
<g >
 <g >
<rect height="110" stroke-width="0" width="40" x="0" y="195"/>
<gtransform="rotate(10, 45, 310)">
 <rect height="40" stroke-width="0" width="70" x="20" y="290"/>
 <ellipse cx="20" cy="310" rx="20" ry="20"  stroke-width="0"/>
</g>
<gtransform="rotate(-10, 45, 190)">
 <rect height="40" stroke-width="0" width="70" x="20" y="170"/>
 <ellipse cx="20" cy="190" rx="20" ry="20"  stroke-width="0"/>
</g>
 </g>
 <gtransform="rotate(-180, 455, 249.928)">
<rect height="110" stroke-width="0" width="40" x="408.605347" y="194.927769"/>
<gtransform="rotate(10, 453.605, 309.928)">
 <rect height="40" stroke-width="0" width="70" x="428.605347" y="289.927769"/>
 <ellipse cx="428.605347" cy="309.927769" rx="20" ry="20"  stroke-width="0"/>
</g>
<gtransform="rotate(-10, 453.605, 189.928)">
 <rect height="40" stroke-width="0" width="70" x="428.605347" y="169.927769"/>
 <ellipse cx="428.605347" cy="189.927769" rx="20" ry="20"  stroke-width="0"/>
</g>
 </g>
</g>
<gtransform="rotate(90, 250, 249.928)">
 <g >
<rect height="110" stroke-width="0" width="40" x="-0.697327" y="194.96368"/>
<gtransform="rotate(10, 44.3027, 309.964)">
 <rect height="40" stroke-width="0" width="70" x="19.302673" y="289.96368"/>
 <ellipse cx="19.302673" cy="309.96368" rx="20" ry="20"  stroke-width="0"/>
</g>
<gtransform="rotate(-10, 44.3027, 189.964)">
 <rect height="40" stroke-width="0" width="70" x="19.302673" y="169.96368"/>
 <ellipse cx="19.302673" cy="189.96368" rx="20" ry="20"  stroke-width="0"/>
</g>
 </g>
 <gtransform="rotate(-180, 454.303, 249.892)">
<rect height="110" stroke-width="0" width="40" x="407.90802" y="194.891449"/>
<gtransform="rotate(10, 452.908, 309.892)">
 <rect height="40" stroke-width="0" width="70" x="427.90802" y="289.891449"/>
 <ellipse cx="427.90802" cy="309.891449" rx="20" ry="20"  stroke-width="0"/>
</g>
<gtransform="rotate(-10, 452.908, 189.892)">
 <rect height="40" stroke-width="0" width="70" x="427.90802" y="169.891449"/>
 <ellipse cx="427.90802" cy="189.891449" rx="20" ry="20"  stroke-width="0"/>
</g>
 </g>
</g>
<gtransform="rotate(45, 250, 249.928)">
 <g >
<rect height="110" stroke-width="0" width="40" x="-0.697327" y="194.96368"/>
<gtransform="rotate(10, 44.3027, 309.964)">
 <rect height="40" stroke-width="0" width="70" x="19.302673" y="289.96368"/>
 <ellipse cx="19.302673" cy="309.96368" rx="20" ry="20"  stroke-width="0"/>
</g>
<gtransform="rotate(-10, 44.3027, 189.964)">
 <rect height="40" stroke-width="0" width="70" x="19.302673" y="169.96368"/>
 <ellipse cx="19.302673" cy="189.96368" rx="20" ry="20"  stroke-width="0"/>
</g>
 </g>
 <gtransform="rotate(-180, 454.303, 249.892)">
<rect height="110" stroke-width="0" width="40" x="407.90802" y="194.891449"/>
<gtransform="rotate(10, 452.908, 309.892)">
 <rect height="40" stroke-width="0" width="70" x="427.90802" y="289.891449"/>
 <ellipse cx="427.90802" cy="309.891449" rx="20" ry="20"  stroke-width="0"/>
</g>
<gtransform="rotate(-10, 452.908, 189.892)">
 <rect height="40" stroke-width="0" width="70" x="427.90802" y="169.891449"/>
 <ellipse cx="427.90802" cy="189.891449" rx="20" ry="20"  stroke-width="0"/>
</g>
 </g>
</g>
<gtransform="rotate(135, 250, 249.928)">
 <g >
<rect height="110" stroke-width="0" width="40" x="-0.697497" y="194.963133"/>
<gtransform="rotate(10, 44.3025, 309.963)">
 <rect height="40" stroke-width="0" width="70" x="19.302503" y="289.963133"/>
 <ellipse cx="19.302503" cy="309.963133" rx="20" ry="20"  stroke-width="0"/>
</g>
<gtransform="rotate(-10, 44.3025, 189.963)">
 <rect height="40" stroke-width="0" width="70" x="19.302503" y="169.963133"/>
 <ellipse cx="19.302503" cy="189.963133" rx="20" ry="20"  stroke-width="0"/>
</g>
 </g>
 <gtransform="rotate(-180, 454.303, 249.891)">
<rect height="110" stroke-width="0" width="40" x="407.90785" y="194.890902"/>
<gtransform="rotate(10, 452.908, 309.891)">
 <rect height="40" stroke-width="0" width="70" x="427.90785" y="289.890902"/>
 <ellipse cx="427.90785" cy="309.890902" rx="20" ry="20"  stroke-width="0"/>
</g>
<gtransform="rotate(-10, 452.908, 189.891)">
 <rect height="40" stroke-width="0" width="70" x="427.90785" y="169.890902"/>
 <ellipse cx="427.90785" cy="189.890902" rx="20" ry="20"  stroke-width="0"/>
</g>
 </g>
</g>
<g >
 <ellipse cx="182.682801" cy="412.940268" rx="20" ry="20"  stroke-width="0"/>
 <ellipse cx="317.7137" cy="413.105036" rx="20" ry="20"  stroke-width="0"/>
 <ellipse cx="182.484543" cy="87.070038" rx="20" ry="20"  stroke-width="0"/>
 <ellipse cx="317.515442" cy="87.234806" rx="20" ry="20"  stroke-width="0"/>
</g>
<gtransform="rotate(90, 250.723, 250.361)">
 <ellipse cx="183.306216" cy="413.213998" rx="20" ry="20"  stroke-width="0"/>
 <ellipse cx="318.337115" cy="413.378766" rx="20" ry="20"  stroke-width="0"/>
 <ellipse cx="183.107958" cy="87.343768" rx="20" ry="20"  stroke-width="0"/>
 <ellipse cx="318.138857" cy="87.508537" rx="20" ry="20"  stroke-width="0"/>
</g>
<ellipse cx="250" cy="250" fill-opacity="0"rx="100" ry="100"  stroke-width="25"/>
 </g>
</svg>