<?xml version="1.0"?>
<svg width="500" height="500" xmlns="http://www.w3.org/2000/svg" xmlns:svg="http://www.w3.org/2000/svg">
 <!-- Created with SVG-edit - https://github.com/SVG-Edit/svgedit-->

 <g class="layer">
  <title>Layer 1</title>
  <g id="svg_16">
   <ellipse cx="20" cy="280" fill="#000000" id="svg_11" rx="20" ry="20" stroke="#000000" stroke-width="0"/>
   <ellipse cx="20" cy="220" fill="#000000" id="svg_2" rx="20" ry="20" stroke="#000000" stroke-width="0"/>
   <rect fill="#000000" height="60" id="svg_1" stroke="#000000" stroke-width="0" width="100" x="0" y="220"/>
   <rect fill="#000000" height="100" id="svg_15" stroke="#000000" stroke-width="0" width="80" x="20" y="200"/>
  </g>
  <g id="svg_17">
   <ellipse cx="480" cy="280" fill="#000000" id="svg_18" rx="20" ry="20" stroke="#000000" stroke-width="0"/>
   <ellipse cx="480" cy="220" fill="#000000" id="svg_19" rx="20" ry="20" stroke="#000000" stroke-width="0"/>
   <rect fill="#000000" height="60" id="svg_20" stroke="#000000" stroke-width="0" width="100" x="400" y="220"/>
   <rect fill="#000000" height="100" id="svg_21" stroke="#000000" stroke-width="0" width="80" x="400" y="200"/>
  </g>
  <g id="svg_32" transform="rotate(90, 250, 450)">
   <ellipse cx="280" cy="480" fill="#000000" id="svg_33" rx="20" ry="20" stroke="#000000" stroke-width="0"/>
   <ellipse cx="280" cy="420" fill="#000000" id="svg_34" rx="20" ry="20" stroke="#000000" stroke-width="0"/>
   <rect fill="#000000" height="60" id="svg_35" stroke="#000000" stroke-width="0" width="100" x="200" y="420"/>
   <rect fill="#000000" height="100" id="svg_36" stroke="#000000" stroke-width="0" width="80" x="200" y="400"/>
  </g>
  <g id="svg_37" transform="rotate(-90, 250, 50)">
   <ellipse cx="280" cy="80" fill="#000000" id="svg_38" rx="20" ry="20" stroke="#000000" stroke-width="0"/>
   <ellipse cx="280" cy="20" fill="#000000" id="svg_39" rx="20" ry="20" stroke="#000000" stroke-width="0"/>
   <rect fill="#000000" height="60" id="svg_40" stroke="#000000" stroke-width="0" width="100" x="200" y="20"/>
   <rect fill="#000000" height="100" id="svg_41" stroke="#000000" stroke-width="0" width="80" x="200" y="0"/>
  </g>
  <g id="svg_42" transform="rotate(-135, 100.711, 100.711)">
   <ellipse cx="130.710679" cy="130.710666" fill="#000000" id="svg_43" rx="20" ry="20" stroke="#000000" stroke-width="0"/>
   <ellipse cx="130.710679" cy="70.710666" fill="#000000" id="svg_44" rx="20" ry="20" stroke="#000000" stroke-width="0"/>
   <rect fill="#000000" height="60" id="svg_45" stroke="#000000" stroke-width="0" width="100" x="50.710679" y="70.710666"/>
   <rect fill="#000000" height="100" id="svg_46" stroke="#000000" stroke-width="0" width="80" x="50.710679" y="50.710666"/>
  </g>
  <ellipse cx="250" cy="250" fill="#000000" fill-opacity="0.01" id="svg_47" rx="160" ry="160" stroke="#000000" stroke-width="75"/>
  <g id="svg_49" transform="rotate(135, 100.711, 400.711)">
   <ellipse cx="130.710624" cy="430.710645" fill="#000000" id="svg_50" rx="20" ry="20" stroke="#000000" stroke-width="0"/>
   <ellipse cx="130.710624" cy="370.710645" fill="#000000" id="svg_51" rx="20" ry="20" stroke="#000000" stroke-width="0"/>
   <rect fill="#000000" height="60" id="svg_52" stroke="#000000" stroke-width="0" width="100" x="50.710624" y="370.710645"/>
   <rect fill="#000000" height="100" id="svg_53" stroke="#000000" stroke-width="0" width="80" x="50.710624" y="350.710645"/>
  </g>
  <g id="svg_54" transform="rotate(45, 400.711, 400.711)">
   <ellipse cx="430.710673" cy="430.710704" fill="#000000" id="svg_55" rx="20" ry="20" stroke="#000000" stroke-width="0"/>
   <ellipse cx="430.710673" cy="370.710704" fill="#000000" id="svg_56" rx="20" ry="20" stroke="#000000" stroke-width="0"/>
   <rect fill="#000000" height="60" id="svg_57" stroke="#000000" stroke-width="0" width="100" x="350.710673" y="370.710704"/>
   <rect fill="#000000" height="100" id="svg_58" stroke="#000000" stroke-width="0" width="80" x="350.710673" y="350.710704"/>
  </g>
  <g id="svg_59" transform="rotate(-45, 400.711, 100.711)">
   <ellipse cx="430.71069" cy="130.710685" fill="#000000" id="svg_60" rx="20" ry="20" stroke="#000000" stroke-width="0"/>
   <ellipse cx="430.71069" cy="70.710685" fill="#000000" id="svg_61" rx="20" ry="20" stroke="#000000" stroke-width="0"/>
   <rect fill="#000000" height="60" id="svg_62" stroke="#000000" stroke-width="0" width="100" x="350.71069" y="70.710685"/>
   <rect fill="#000000" height="100" id="svg_63" stroke="#000000" stroke-width="0" width="80" x="350.71069" y="50.710685"/>
  </g>
 </g>
</svg>