<?xml version="1.0"?>
<svg width="500.00000000000006" height="500.00000000000006" xmlns="http://www.w3.org/2000/svg" xmlns:svg="http://www.w3.org/2000/svg">
 <!-- Created with SVG-edit - https://github.com/SVG-Edit/svgedit-->

 <g class="layer">
  <title>Layer 1</title>
  <g id="svg_119">
   <g id="svg_110">
    <rect fill="#000000" height="110" id="svg_106" stroke="#000000" stroke-width="0" width="40" x="0" y="195"/>
    <g id="svg_108" transform="rotate(10, 45, 310)">
     <rect fill="#000000" height="40" id="svg_105" stroke="#000000" stroke-width="0" width="70" x="20" y="290"/>
     <ellipse cx="20" cy="310" fill="#000000" id="svg_104" rx="20" ry="20" stroke="#000000" stroke-width="0"/>
    </g>
    <g id="svg_109" transform="rotate(-10, 45, 190)">
     <rect fill="#000000" height="40" id="svg_102" stroke="#000000" stroke-width="0" width="70" x="20" y="170"/>
     <ellipse cx="20" cy="190" fill="#000000" id="svg_103" rx="20" ry="20" stroke="#000000" stroke-width="0"/>
    </g>
   </g>
   <g id="svg_111" transform="rotate(-180, 455, 249.928)">
    <rect fill="#000000" height="110" id="svg_112" stroke="#000000" stroke-width="0" width="40" x="408.605347" y="194.927769"/>
    <g id="svg_113" transform="rotate(10, 453.605, 309.928)">
     <rect fill="#000000" height="40" id="svg_114" stroke="#000000" stroke-width="0" width="70" x="428.605347" y="289.927769"/>
     <ellipse cx="428.605347" cy="309.927769" fill="#000000" id="svg_115" rx="20" ry="20" stroke="#000000" stroke-width="0"/>
    </g>
    <g id="svg_116" transform="rotate(-10, 453.605, 189.928)">
     <rect fill="#000000" height="40" id="svg_117" stroke="#000000" stroke-width="0" width="70" x="428.605347" y="169.927769"/>
     <ellipse cx="428.605347" cy="189.927769" fill="#000000" id="svg_118" rx="20" ry="20" stroke="#000000" stroke-width="0"/>
    </g>
   </g>
  </g>
  <g id="svg_120" transform="rotate(90, 250, 249.928)">
   <g id="svg_121">
    <rect fill="#000000" height="110" id="svg_122" stroke="#000000" stroke-width="0" width="40" x="-0.697327" y="194.96368"/>
    <g id="svg_123" transform="rotate(10, 44.3027, 309.964)">
     <rect fill="#000000" height="40" id="svg_124" stroke="#000000" stroke-width="0" width="70" x="19.302673" y="289.96368"/>
     <ellipse cx="19.302673" cy="309.96368" fill="#000000" id="svg_125" rx="20" ry="20" stroke="#000000" stroke-width="0"/>
    </g>
    <g id="svg_126" transform="rotate(-10, 44.3027, 189.964)">
     <rect fill="#000000" height="40" id="svg_127" stroke="#000000" stroke-width="0" width="70" x="19.302673" y="169.96368"/>
     <ellipse cx="19.302673" cy="189.96368" fill="#000000" id="svg_128" rx="20" ry="20" stroke="#000000" stroke-width="0"/>
    </g>
   </g>
   <g id="svg_129" transform="rotate(-180, 454.303, 249.892)">
    <rect fill="#000000" height="110" id="svg_130" stroke="#000000" stroke-width="0" width="40" x="407.90802" y="194.891449"/>
    <g id="svg_131" transform="rotate(10, 452.908, 309.892)">
     <rect fill="#000000" height="40" id="svg_132" stroke="#000000" stroke-width="0" width="70" x="427.90802" y="289.891449"/>
     <ellipse cx="427.90802" cy="309.891449" fill="#000000" id="svg_133" rx="20" ry="20" stroke="#000000" stroke-width="0"/>
    </g>
    <g id="svg_134" transform="rotate(-10, 452.908, 189.892)">
     <rect fill="#000000" height="40" id="svg_135" stroke="#000000" stroke-width="0" width="70" x="427.90802" y="169.891449"/>
     <ellipse cx="427.90802" cy="189.891449" fill="#000000" id="svg_136" rx="20" ry="20" stroke="#000000" stroke-width="0"/>
    </g>
   </g>
  </g>
  <g id="svg_172" transform="rotate(45, 250, 249.928)">
   <g id="svg_173">
    <rect fill="#000000" height="110" id="svg_174" stroke="#000000" stroke-width="0" width="40" x="-0.697327" y="194.96368"/>
    <g id="svg_175" transform="rotate(10, 44.3027, 309.964)">
     <rect fill="#000000" height="40" id="svg_176" stroke="#000000" stroke-width="0" width="70" x="19.302673" y="289.96368"/>
     <ellipse cx="19.302673" cy="309.96368" fill="#000000" id="svg_177" rx="20" ry="20" stroke="#000000" stroke-width="0"/>
    </g>
    <g id="svg_178" transform="rotate(-10, 44.3027, 189.964)">
     <rect fill="#000000" height="40" id="svg_179" stroke="#000000" stroke-width="0" width="70" x="19.302673" y="169.96368"/>
     <ellipse cx="19.302673" cy="189.96368" fill="#000000" id="svg_180" rx="20" ry="20" stroke="#000000" stroke-width="0"/>
    </g>
   </g>
   <g id="svg_181" transform="rotate(-180, 454.303, 249.892)">
    <rect fill="#000000" height="110" id="svg_182" stroke="#000000" stroke-width="0" width="40" x="407.90802" y="194.891449"/>
    <g id="svg_183" transform="rotate(10, 452.908, 309.892)">
     <rect fill="#000000" height="40" id="svg_184" stroke="#000000" stroke-width="0" width="70" x="427.90802" y="289.891449"/>
     <ellipse cx="427.90802" cy="309.891449" fill="#000000" id="svg_185" rx="20" ry="20" stroke="#000000" stroke-width="0"/>
    </g>
    <g id="svg_186" transform="rotate(-10, 452.908, 189.892)">
     <rect fill="#000000" height="40" id="svg_187" stroke="#000000" stroke-width="0" width="70" x="427.90802" y="169.891449"/>
     <ellipse cx="427.90802" cy="189.891449" fill="#000000" id="svg_188" rx="20" ry="20" stroke="#000000" stroke-width="0"/>
    </g>
   </g>
  </g>
  <g id="svg_189" transform="rotate(135, 250, 249.928)">
   <g id="svg_190">
    <rect fill="#000000" height="110" id="svg_191" stroke="#000000" stroke-width="0" width="40" x="-0.697497" y="194.963133"/>
    <g id="svg_192" transform="rotate(10, 44.3025, 309.963)">
     <rect fill="#000000" height="40" id="svg_193" stroke="#000000" stroke-width="0" width="70" x="19.302503" y="289.963133"/>
     <ellipse cx="19.302503" cy="309.963133" fill="#000000" id="svg_194" rx="20" ry="20" stroke="#000000" stroke-width="0"/>
    </g>
    <g id="svg_195" transform="rotate(-10, 44.3025, 189.963)">
     <rect fill="#000000" height="40" id="svg_196" stroke="#000000" stroke-width="0" width="70" x="19.302503" y="169.963133"/>
     <ellipse cx="19.302503" cy="189.963133" fill="#000000" id="svg_197" rx="20" ry="20" stroke="#000000" stroke-width="0"/>
    </g>
   </g>
   <g id="svg_198" transform="rotate(-180, 454.303, 249.891)">
    <rect fill="#000000" height="110" id="svg_199" stroke="#000000" stroke-width="0" width="40" x="407.90785" y="194.890902"/>
    <g id="svg_200" transform="rotate(10, 452.908, 309.891)">
     <rect fill="#000000" height="40" id="svg_201" stroke="#000000" stroke-width="0" width="70" x="427.90785" y="289.890902"/>
     <ellipse cx="427.90785" cy="309.890902" fill="#000000" id="svg_202" rx="20" ry="20" stroke="#000000" stroke-width="0"/>
    </g>
    <g id="svg_203" transform="rotate(-10, 452.908, 189.891)">
     <rect fill="#000000" height="40" id="svg_204" stroke="#000000" stroke-width="0" width="70" x="427.90785" y="169.890902"/>
     <ellipse cx="427.90785" cy="189.890902" fill="#000000" id="svg_205" rx="20" ry="20" stroke="#000000" stroke-width="0"/>
    </g>
   </g>
  </g>
  <g id="svg_211">
   <ellipse cx="182.682801" cy="412.940268" fill="#000000" id="svg_207" rx="20" ry="20" stroke="#000000" stroke-width="0"/>
   <ellipse cx="317.7137" cy="413.105036" fill="#000000" id="svg_208" rx="20" ry="20" stroke="#000000" stroke-width="0"/>
   <ellipse cx="182.484543" cy="87.070038" fill="#000000" id="svg_210" rx="20" ry="20" stroke="#000000" stroke-width="0"/>
   <ellipse cx="317.515442" cy="87.234806" fill="#000000" id="svg_209" rx="20" ry="20" stroke="#000000" stroke-width="0"/>
  </g>
  <g id="svg_212" transform="rotate(90, 250.723, 250.361)">
   <ellipse cx="183.306216" cy="413.213998" fill="#000000" id="svg_213" rx="20" ry="20" stroke="#000000" stroke-width="0"/>
   <ellipse cx="318.337115" cy="413.378766" fill="#000000" id="svg_214" rx="20" ry="20" stroke="#000000" stroke-width="0"/>
   <ellipse cx="183.107958" cy="87.343768" fill="#000000" id="svg_215" rx="20" ry="20" stroke="#000000" stroke-width="0"/>
   <ellipse cx="318.138857" cy="87.508537" fill="#000000" id="svg_216" rx="20" ry="20" stroke="#000000" stroke-width="0"/>
  </g>
  <ellipse cx="250" cy="250" fill="#000000" fill-opacity="0" id="svg_218" rx="100" ry="100" stroke="#000000" stroke-width="25"/>
 </g>
</svg>