<?xml version="1.0" encoding="UTF-8" standalone="no"?>
<!DOCTYPE svg PUBLIC "-//W3C//DTD SVG 1.1//EN" "http://www.w3.org/Graphics/SVG/1.1/DTD/svg11.dtd">
<svg version="1.1" xmlns="http://www.w3.org/2000/svg" xmlns:xlink="http://www.w3.org/1999/xlink" preserveAspectRatio="xMidYMid meet" viewBox="0 0 640 640" width="640" height="640"><defs><path d="M136.15 107.87C143.96 100.06 156.63 100.06 164.44 107.87C172.92 116.35 184.24 127.67 192.72 136.15C200.53 143.96 200.53 156.63 192.72 164.44C184.24 172.92 172.92 184.24 164.44 192.72C156.63 200.53 143.96 200.53 136.15 192.72C127.67 184.24 116.35 172.92 107.87 164.44C100.06 156.63 100.06 143.96 107.87 136.15C116.35 127.67 127.67 116.35 136.15 107.87Z" id="d19ximwdnG"></path><path d="M475.56 447.28C483.37 439.47 496.04 439.47 503.85 447.28C512.33 455.76 523.65 467.08 532.13 475.56C539.94 483.37 539.94 496.04 532.13 503.85C523.65 512.33 512.33 523.65 503.85 532.13C496.04 539.94 483.37 539.94 475.56 532.13C467.08 523.65 455.76 512.33 447.28 503.85C439.47 496.04 439.47 483.37 447.28 475.56C455.76 467.08 467.08 455.76 475.56 447.28Z" id="a2dDSTvOrz"></path><path d="M532.13 136.15C539.94 143.96 539.94 156.63 532.13 164.44C523.65 172.92 512.33 184.24 503.85 192.72C496.04 200.53 483.37 200.53 475.56 192.72C467.08 184.24 455.76 172.92 447.28 164.44C439.47 156.63 439.47 143.96 447.28 136.15C455.76 127.67 467.08 116.35 475.56 107.87C483.37 100.06 496.04 100.06 503.85 107.87C512.33 116.35 523.65 127.67 532.13 136.15Z" id="d1hOHOEAng"></path><path d="M192.72 475.56C200.53 483.37 200.53 496.04 192.72 503.85C184.24 512.33 172.92 523.65 164.44 532.13C156.63 539.94 143.96 539.94 136.15 532.13C127.67 523.65 116.35 512.33 107.87 503.85C100.06 496.04 100.06 483.37 107.87 475.56C116.35 467.08 127.67 455.76 136.15 447.28C143.96 439.47 156.63 439.47 164.44 447.28C172.92 455.76 184.24 467.08 192.72 475.56Z" id="a3RHZrjP"></path><path d="M122.01 461.42L461.42 122.01L517.99 178.58L178.58 517.99L122.01 461.42Z" id="auImeEx6h"></path><path d="M178.58 122.01L517.99 461.42L461.42 517.99L122.01 178.58L178.58 122.01Z" id="a2gY0mcLj"></path></defs><g><g><g><use xlink:href="#d19ximwdnG" opacity="1" fill="#000000" fill-opacity="1"></use></g><g><use xlink:href="#a2dDSTvOrz" opacity="1" fill="#000000" fill-opacity="1"></use></g><g><use xlink:href="#d1hOHOEAng" opacity="1" fill="#000000" fill-opacity="1"></use></g><g><use xlink:href="#a3RHZrjP" opacity="1" fill="#000000" fill-opacity="1"></use></g><g><use xlink:href="#auImeEx6h" opacity="1" fill="#000000" fill-opacity="1"></use></g><g><use xlink:href="#a2gY0mcLj" opacity="1" fill="#000000" fill-opacity="1"></use></g></g></g></svg>